<svg xmlns="http://www.w3.org/2000/svg" width="308" height="118" viewBox="0 0 308 118"><rect width="100%" height="100%" fill="#fff" /><rect x="10" y="0" width="2" height="90" fill="#000" /><rect x="17" y="0" width="2" height="90" fill="#000" /><rect x="21" y="0" width="5" height="90" fill="#000" /><rect x="28" y="0" width="5" height="90" fill="#000" /><rect x="35" y="0" width="2" height="90" fill="#000" /><rect x="39" y="0" width="5" height="90" fill="#000" /><rect x="46" y="0" width="2" height="90" fill="#000" /><rect x="50" y="0" width="5" height="90" fill="#000" /><rect x="60" y="0" width="2" height="90" fill="#000" /><rect x="64" y="0" width="2" height="90" fill="#000" /><rect x="68" y="0" width="2" height="90" fill="#000" /><rect x="72" y="0" width="5" height="90" fill="#000" /><rect x="79" y="0" width="2" height="90" fill="#000" /><rect x="83" y="0" width="5" height="90" fill="#000" /><rect x="93" y="0" width="2" height="90" fill="#000" /><rect x="97" y="0" width="2" height="90" fill="#000" /><rect x="101" y="0" width="2" height="90" fill="#000" /><rect x="105" y="0" width="5" height="90" fill="#000" /><rect x="112" y="0" width="5" height="90" fill="#000" /><rect x="122" y="0" width="2" height="90" fill="#000" /><rect x="126" y="0" width="2" height="90" fill="#000" /><rect x="133" y="0" width="2" height="90" fill="#000" /><rect x="137" y="0" width="2" height="90" fill="#000" /><rect x="141" y="0" width="5" height="90" fill="#000" /><rect x="148" y="0" width="5" height="90" fill="#000" /><rect x="155" y="0" width="2" height="90" fill="#000" /><rect x="159" y="0" width="2" height="90" fill="#000" /><rect x="166" y="0" width="5" height="90" fill="#000" /><rect x="173" y="0" width="5" height="90" fill="#000" /><rect x="180" y="0" width="2" height="90" fill="#000" /><rect x="184" y="0" width="2" height="90" fill="#000" /><rect x="188" y="0" width="2" height="90" fill="#000" /><rect x="195" y="0" width="5" height="90" fill="#000" /><rect x="202" y="0" width="5" height="90" fill="#000" /><rect x="209" y="0" width="2" height="90" fill="#000" /><rect x="213" y="0" width="5" height="90" fill="#000" /><rect x="220" y="0" width="2" height="90" fill="#000" /><rect x="227" y="0" width="2" height="90" fill="#000" /><rect x="231" y="0" width="2" height="90" fill="#000" /><rect x="235" y="0" width="5" height="90" fill="#000" /><rect x="242" y="0" width="5" height="90" fill="#000" /><rect x="249" y="0" width="2" height="90" fill="#000" /><rect x="256" y="0" width="2" height="90" fill="#000" /><rect x="260" y="0" width="5" height="90" fill="#000" /><rect x="267" y="0" width="2" height="90" fill="#000" /><rect x="271" y="0" width="2" height="90" fill="#000" /><rect x="278" y="0" width="2" height="90" fill="#000" /><rect x="282" y="0" width="5" height="90" fill="#000" /><rect x="289" y="0" width="5" height="90" fill="#000" /><rect x="296" y="0" width="2" height="90" fill="#000" /><text x="154" y="110" text-anchor="middle" font-size="14" font-family="Arial, sans-serif" fill="#000">EST-0018</text></svg>