<svg xmlns="http://www.w3.org/2000/svg" width="520" height="180" viewBox="0 0 520 180">
  <rect width="520" height="180" fill="#ffffff"/>
  <rect x="32" y="24" width="2" height="98" fill="#000000"/>
  <rect x="36" y="24" width="4" height="98" fill="#000000"/>
  <rect x="44" y="24" width="2" height="98" fill="#000000"/>
  <rect x="50" y="24" width="6" height="98" fill="#000000"/>
  <rect x="60" y="24" width="2" height="98" fill="#000000"/>
  <rect x="66" y="24" width="8" height="98" fill="#000000"/>
  <rect x="78" y="24" width="2" height="98" fill="#000000"/>
  <rect x="84" y="24" width="4" height="98" fill="#000000"/>
  <rect x="92" y="24" width="2" height="98" fill="#000000"/>
  <rect x="98" y="24" width="6" height="98" fill="#000000"/>
  <rect x="108" y="24" width="2" height="98" fill="#000000"/>
  <rect x="114" y="24" width="10" height="98" fill="#000000"/>
  <rect x="128" y="24" width="2" height="98" fill="#000000"/>
  <rect x="134" y="24" width="4" height="98" fill="#000000"/>
  <rect x="142" y="24" width="2" height="98" fill="#000000"/>
  <rect x="148" y="24" width="8" height="98" fill="#000000"/>
  <rect x="160" y="24" width="2" height="98" fill="#000000"/>
  <rect x="166" y="24" width="6" height="98" fill="#000000"/>
  <rect x="176" y="24" width="2" height="98" fill="#000000"/>
  <rect x="182" y="24" width="4" height="98" fill="#000000"/>
  <rect x="190" y="24" width="2" height="98" fill="#000000"/>
  <rect x="196" y="24" width="10" height="98" fill="#000000"/>
  <rect x="210" y="24" width="2" height="98" fill="#000000"/>
  <rect x="216" y="24" width="6" height="98" fill="#000000"/>
  <rect x="226" y="24" width="2" height="98" fill="#000000"/>
  <rect x="232" y="24" width="8" height="98" fill="#000000"/>
  <rect x="244" y="24" width="2" height="98" fill="#000000"/>
  <rect x="250" y="24" width="4" height="98" fill="#000000"/>
  <rect x="258" y="24" width="2" height="98" fill="#000000"/>
  <rect x="264" y="24" width="6" height="98" fill="#000000"/>
  <rect x="274" y="24" width="2" height="98" fill="#000000"/>
  <rect x="280" y="24" width="10" height="98" fill="#000000"/>
  <rect x="294" y="24" width="2" height="98" fill="#000000"/>
  <rect x="300" y="24" width="6" height="98" fill="#000000"/>
  <rect x="310" y="24" width="2" height="98" fill="#000000"/>
  <rect x="316" y="24" width="8" height="98" fill="#000000"/>
  <rect x="328" y="24" width="2" height="98" fill="#000000"/>
  <rect x="334" y="24" width="4" height="98" fill="#000000"/>
  <rect x="342" y="24" width="2" height="98" fill="#000000"/>
  <rect x="348" y="24" width="6" height="98" fill="#000000"/>
  <rect x="358" y="24" width="2" height="98" fill="#000000"/>
  <rect x="364" y="24" width="10" height="98" fill="#000000"/>
  <rect x="378" y="24" width="2" height="98" fill="#000000"/>
  <rect x="384" y="24" width="4" height="98" fill="#000000"/>
  <rect x="392" y="24" width="2" height="98" fill="#000000"/>
  <rect x="398" y="24" width="8" height="98" fill="#000000"/>
  <rect x="410" y="24" width="2" height="98" fill="#000000"/>
  <rect x="416" y="24" width="6" height="98" fill="#000000"/>
  <rect x="426" y="24" width="2" height="98" fill="#000000"/>
  <rect x="432" y="24" width="10" height="98" fill="#000000"/>
  <rect x="446" y="24" width="2" height="98" fill="#000000"/>
  <rect x="452" y="24" width="6" height="98" fill="#000000"/>
  <rect x="462" y="24" width="2" height="98" fill="#000000"/>
  <text x="260" y="154" font-family="Arial, sans-serif" font-size="20" text-anchor="middle" fill="#000000">EST-0000</text>
</svg>
